<svg fill="#FFFFFF" xmlns="http://www.w3.org/2000/svg"  viewBox="0 0 50 50" width="50px" height="50px"><path d="M46.678 7.503c-.32-.217-10.096-5.267-10.096-5.267L36.58 2.24c-.712-.335-1.563-.295-2.257.069.905.448 1.542 1.333 1.647 2.383C35.988 4.818 36 4.933 36 4.989v40c0 1.186-.694 2.201-1.692 2.688.364.199.771.312 1.192.312.373 0 .724-.088 1.042-.234l.002.004c1.608-.832 9.648-4.995 9.944-5.164C47.421 42.06 48 41.062 48 39.989v-30C48 8.991 47.506 8.061 46.678 7.503zM9.343 11.507C8.975 11.173 8.497 10.989 8 10.989c-.156 0-.446 0-1.744.601-.715.331-3.206 1.639-3.206 1.639-.33.179-.595.459-.782.783C2.344 14 2.42 13.989 2.499 13.989H2.5c.668 0 1.078.466 1.223.617 0 0 28.206 30.727 28.569 31.09.195.195.451.293.707.293s.512-.098.707-.293S34 45.245 34 44.989c0-.216 0-13.331 0-13.331S9.533 11.661 9.343 11.507zM27.724 23.97L34 18.686V4.989c0-.256-.098-.512-.293-.707-.391-.391-1.024-.391-1.414 0 0 0-5.724 6.436-12.062 13.557L27.724 23.97zM12.254 26.802c0 0-8.595 9.65-8.693 9.748C3.29 36.821 2.915 36.989 2.5 36.989c-.078 0-.153-.011-.228-.023.202.351.497.641.864.819l-.003.006c.87.442 3.74 1.9 4.118 2.054C7.489 39.94 7.741 39.989 8 39.989c.347 0 .69-.091.998-.267.023-.013 8.529-7.17 8.529-7.17L12.254 26.802zM8 22.007l-5.659-5.96c-.036-.036-.086-.058-.141-.058-.11 0-.2.089-.2.2v18.606c0 .107.087.195.195.195.056 0 .105-.025.14-.064L8 28.639V22.007z"/></svg>